HIERARCHY
ROOT RootJoint
{
    OFFSET   0.000000   0.000000   0.000000
    CHANNELS 6 Xposition Yposition Zposition Xrotation Yrotation Zrotation
    JOINT pelvis_lowerback
    {
        OFFSET   0.000000   0.093605   0.000000
        CHANNELS 3 Xrotation Yrotation Zrotation
        JOINT lowerback_torso
        {
            OFFSET   0.000000   0.100000   0.000000
            CHANNELS 3 Xrotation Yrotation Zrotation
            JOINT torso_head
            {
                OFFSET   0.000000   0.282350   0.000000
                CHANNELS 3 Xrotation Yrotation Zrotation
                End Site
                {
                    OFFSET   0.000000   0.192650   0.000000
                }
            }
            JOINT rTorso_Clavicle
            {
                OFFSET  -0.001000   0.157500   0.000000
                CHANNELS 3 Xrotation Yrotation Zrotation
                JOINT rShoulder
                {
                    OFFSET  -0.117647   0.000000   0.000000
                    CHANNELS 3 Xrotation Yrotation Zrotation
                    JOINT rElbow
                    {
                        OFFSET  -0.245000   0.000000   0.000000
                        CHANNELS 3 Xrotation Yrotation Zrotation
                        JOINT rWrist
                        {
                            OFFSET  -0.240000   0.000000   0.000000
                            CHANNELS 3 Xrotation Yrotation Zrotation
                            End Site
                            {
                                OFFSET  -0.116353  -0.002500   0.000000
                            }
                        }
                    }
                }
            }
            JOINT lTorso_Clavicle
            {
                OFFSET   0.001000   0.157500   0.000000
                CHANNELS 3 Xrotation Yrotation Zrotation
                JOINT lShoulder
                {
                    OFFSET   0.117647   0.000000   0.000000
                    CHANNELS 3 Xrotation Yrotation Zrotation
                    JOINT lElbow
                    {
                        OFFSET   0.245000   0.000000   0.000000
                        CHANNELS 3 Xrotation Yrotation Zrotation
                        JOINT lWrist
                        {
                            OFFSET   0.240000   0.000000   0.000000
                            CHANNELS 3 Xrotation Yrotation Zrotation
                            End Site
                            {
                                OFFSET   0.116353  -0.002500   0.000000
                            }
                        }
                    }
                }
            }
        }
    }
    JOINT rHip
    {
        OFFSET  -0.100000  -0.051395   0.000000
        CHANNELS 3 Xrotation Yrotation Zrotation
        JOINT rKnee
        {
            OFFSET   0.000000  -0.410000   0.000000
            CHANNELS 3 Xrotation Yrotation Zrotation
            JOINT rAnkle
            {
                OFFSET   0.000000  -0.390000   0.000000
                CHANNELS 3 Xrotation Yrotation Zrotation
                JOINT rToeJoint
                {
                    OFFSET   0.000000  -0.050000   0.130000
                    CHANNELS 3 Xrotation Yrotation Zrotation
                    End Site
                    {
                        OFFSET  -0.010000   0.002000   0.060000
                    }
                }
            }
        }
    }
    JOINT lHip
    {
        OFFSET   0.100000  -0.051395   0.000000
        CHANNELS 3 Xrotation Yrotation Zrotation
        JOINT lKnee
        {
            OFFSET   0.000000  -0.410000   0.000000
            CHANNELS 3 Xrotation Yrotation Zrotation
            JOINT lAnkle
            {
                OFFSET   0.000000  -0.390000   0.000000
                CHANNELS 3 Xrotation Yrotation Zrotation
                JOINT lToeJoint
                {
                    OFFSET   0.000000  -0.050000   0.130000
                    CHANNELS 3 Xrotation Yrotation Zrotation
                    End Site
                    {
                        OFFSET   0.010000   0.002000   0.060000
                    }
                }
            }
        }
    }
}
MOTION
Frames: 14
Frame Time:   0.008333
 -2.400473   0.865502   4.225512  -2.032759   5.478447   2.710124  13.087465   5.405328  -2.073805   5.752890   1.081327  -0.376907  -4.646053   0.516634  -0.385184   0.985536   5.902724  14.662231  -2.353442  13.014473  41.110455   0.001709  34.734107  -0.007087   5.068656   3.375023  -7.007726   3.670783   0.812691 -15.624343   9.498443  -2.262944 -46.877590  -0.001845 -24.004441  -0.000550   3.157386  -3.060996   5.577442  13.616145  -5.416384  -4.264049  18.203448   0.000414  -0.000671 -29.848231  -4.160759  -0.568754  -0.169899  -0.000074   0.000000 -31.810024   1.844728   3.042985  30.255886   0.004215   0.003341 -12.505700   7.303501  -0.496608  -2.225154  -0.000127   0.001181
 -2.398711   0.862766   4.232312  -1.787468   5.318499   2.676810  13.124955   5.454216  -2.147854   5.810790   1.212088  -0.490522  -4.796956   0.457988  -0.323888   0.864192   6.065851  14.696456  -2.657847  13.218871  41.094289   0.001753  35.348839  -0.006977   5.050839   3.378931  -7.120794   3.712167   0.899128 -15.655097   9.675772  -2.144807 -46.815470  -0.001949 -23.715604  -0.000805   3.143478  -3.080293   5.554023  13.759988  -5.380365  -4.409640  18.420116   0.000539  -0.000814 -30.421104  -4.089754  -0.301314  -0.182824  -0.000048   0.000000 -32.558104   1.662704   3.204619  30.179860   0.003495   0.002827 -12.556419   7.154035  -0.490341  -2.394774  -0.000046   0.001571
 -2.396855   0.859965   4.239293  -1.557329   5.138062   2.648511  13.169084   5.501535  -2.235412   5.873750   1.342653  -0.602909  -4.937160   0.400825  -0.266575   0.733091   6.233812  14.736697  -2.956375  13.425039  41.083806   0.001762  35.932935  -0.006743   5.040482   3.434412  -7.244074   3.755635   0.980842 -15.678139   9.845996  -2.027247 -46.745647  -0.001984 -23.437736  -0.001040   3.127515  -3.054484   5.542305  13.923567  -5.335232  -4.571169  18.649426   0.000660  -0.000965 -30.979608  -4.012980  -0.044333  -0.249635   0.000004  -0.000001 -33.274068   1.481294   3.365217  30.191957   0.002780   0.002232 -12.600815   7.014412  -0.484141  -2.557053   0.000028   0.001866
 -2.394896   0.857115   4.246459  -1.326561   4.958435   2.616943  13.206613   5.548206  -2.322219   5.931735   1.469217  -0.710664  -5.067276   0.346681  -0.214370   0.604163   6.396796  14.777486  -3.240332  13.623405  41.076998   0.001770  36.481475  -0.006456   5.033591   3.512605  -7.367047   3.798629   1.058970 -15.695933  10.006728  -1.914614 -46.676922  -0.001961 -23.176414  -0.001202   3.111089  -3.012480   5.537180  14.099257  -5.290616  -4.735289  18.877758   0.000768  -0.001087 -31.507433  -3.938743   0.196951  -0.385643   0.000061  -0.000004 -33.953567   1.306174   3.520221  30.215794   0.002190   0.001731 -12.641508   6.884115  -0.478277  -2.705336   0.000077   0.002029
 -2.392828   0.854215   4.253805  -1.089546   4.785963   2.579855  13.235317   5.594231  -2.404617   5.981672   1.590228  -0.812370  -5.189141   0.295876  -0.166319   0.481311   6.551507  14.816659  -3.507485  13.811033  41.072448   0.001781  36.994849  -0.006143   5.028386   3.598225  -7.486133   3.839516   1.133039 -15.710267  10.157193  -1.808249 -46.611293  -0.001900 -22.932065  -0.001298   3.094973  -2.967391   5.535999  14.282939  -5.249314  -4.898540  19.102321   0.000864  -0.001177 -32.000491  -3.869373   0.422384  -0.594350   0.000092  -0.000011 -34.598286   1.139114   3.666936  30.238047   0.001723   0.001337 -12.679421   6.762520  -0.472766  -2.841373   0.000103   0.002087
 -2.390652   0.851263   4.261326  -0.843505   4.621607   2.536579  13.255180   5.639287  -2.481828   6.023118   1.705019  -0.907830  -5.303698   0.248380  -0.121800   0.365644   6.697088  14.853477  -3.757747  13.987294  41.069410   0.001792  37.474636  -0.005818   5.024100   3.684903  -7.600404   3.877553   1.202756 -15.722007  10.297385  -1.708538 -46.549218  -0.001813 -22.704145  -0.001346   3.079481  -2.924227   5.537625  14.471964  -5.211726  -5.060279  19.322265   0.000950  -0.001239 -32.458464  -3.804976   0.632415  -0.874640   0.000073  -0.000022 -35.209484   0.980647   3.804203  30.256826   0.001356   0.001032 -12.714874   6.649049  -0.467605  -2.966421   0.000111   0.002071
 -2.388368   0.848251   4.269016  -0.586427   4.464631   2.486705  13.266668   5.682947  -2.553838   6.056360   1.813289  -0.997247  -5.411528   0.204038  -0.080429   0.257318   6.833508  14.887705  -3.991740  14.152367  41.067458   0.001801  37.922767  -0.005488   5.020395   3.770121  -7.709778   3.912447   1.268038 -15.731591  10.427634  -1.615468 -46.490697  -0.001713 -22.491825  -0.001363   3.064742  -2.884959   5.541472  14.664214  -5.177518  -5.220464  19.536996   0.001027  -0.001279 -32.882369  -3.744974   0.827686  -1.223480  -0.000013  -0.000038 -35.788215   0.830772   3.931827  30.272363   0.001069   0.000795 -12.748051   6.543155  -0.462778  -3.081450   0.000106   0.002004
 -2.385940   0.845416   4.277084  -0.343767   4.356252   2.420656  13.229125   5.721340  -2.633695   6.125003   1.933933  -1.060639  -5.558633   0.142262  -0.009258   0.162027   6.959588  14.951210  -4.115891  14.316455  41.001242   0.001991  38.347652  -0.005660   5.069840   3.823345  -7.856624   3.931929   1.301778 -15.823520  10.545518  -1.563333 -46.291600  -0.001612 -22.229499  -0.001460   3.075974  -2.845631   5.516234  14.851692  -5.095325  -5.359837  19.842209   0.001295  -0.001214 -33.090760  -3.759688   1.115956  -1.999734   0.000438  -0.000126 -36.629384   0.709341   4.017886  31.422207   0.000376  -0.000806 -12.842990   6.474158  -0.393589  -3.148523   0.000152   0.001733
 -2.383351   0.842762   4.285503  -0.109571   4.236170   2.383173  13.180809   5.768601  -2.752660   6.184278   2.051585  -1.134044  -5.699991   0.085276   0.057685   0.082911   7.078239  15.022932  -4.224317  14.467494  40.948732   0.002094  38.741041  -0.005681   5.119336   3.858966  -7.972327   3.944951   1.330119 -15.899807  10.651831  -1.514302 -46.089411  -0.001503 -21.982385  -0.001483   3.086526  -2.789043   5.513352  15.047327  -5.013051  -5.540066  20.171155   0.001572  -0.001198 -33.161337  -3.764388   1.365933  -3.031858   0.000413  -0.000267 -37.403671   0.613761   4.044281  32.692867   0.000105  -0.002483 -12.922258   6.411428  -0.329479  -3.208734   0.000171   0.001507
 -2.380622   0.840189   4.294185   0.143017   4.106495   2.353454  13.110828   5.818450  -2.884972   6.222401   2.163315  -1.215741  -5.834575   0.032404   0.116711   0.012461   7.188909  15.090720  -4.323500  14.609285  40.904828   0.002069  39.108913  -0.005550   5.166836   3.892644  -8.066860   3.955863   1.357206 -15.960009  10.749851  -1.467919 -45.895042  -0.001392 -21.752922  -0.001470   3.096599  -2.737897   5.522801  15.234376  -4.931194  -5.739794  20.497028   0.001804  -0.001210 -33.134075  -3.758110   1.581156  -4.229741  -0.000126  -0.000449 -38.109310   0.532109   4.035847  33.925293   0.000101  -0.003996 -12.994017   6.352631  -0.270106  -3.262739   0.000168   0.001319
 -2.377774   0.837574   4.303063   0.425216   3.967776   2.327966  13.018821   5.868439  -3.025993   6.236606   2.268004  -1.303585  -5.962866  -0.016920   0.169203  -0.054104   7.291955  15.148026  -4.416955  14.743452  40.864262   0.001929  39.454488  -0.005307   5.213374   3.932747  -8.153561   3.965231   1.383122 -16.004289  10.840506  -1.424083 -45.708846  -0.001276 -21.540309  -0.001444   3.106779  -2.697469   5.539795  15.421433  -4.850511  -5.953625  20.830247   0.002015  -0.001250 -33.012763  -3.740551   1.764692  -5.633439  -0.001216  -0.000716 -38.763503   0.461245   4.002593  35.091418   0.000219  -0.005297 -13.060457   6.297424  -0.215027  -3.313215   0.000155   0.001166
 -2.374823   0.834874   4.312097   0.734414   3.821529   2.295583  12.913212   5.917161  -3.164772   6.230697   2.365463  -1.392946  -6.085363  -0.062963   0.216583  -0.120205   7.388748  15.193927  -4.506862  14.870600  40.822916   0.001714  39.778936  -0.004990   5.259204   3.979425  -8.242753   3.971510   1.406236 -16.038071  10.923161  -1.383794 -45.531151  -0.001166 -21.343366  -0.001420   3.117092  -2.667106   5.564092  15.602224  -4.770530  -6.170044  21.142707   0.002158  -0.001290 -32.850151  -3.715229   1.926789  -7.102340  -0.002533  -0.001008 -39.370736   0.397777   3.959052  36.186326   0.000403  -0.006327 -13.122274   6.245625  -0.163834  -3.360145   0.000134   0.001038
 -2.371770   0.831809   4.321159   1.081652   3.654042   2.292642  12.796637   5.966334  -3.330344   6.202865   2.456338  -1.495756  -6.200644  -0.105972   0.258267  -0.189834   7.480732  15.218104  -4.596815  14.994746  40.780077   0.001431  40.087594  -0.004649   5.305881   4.044368  -8.337947   3.975837   1.427127 -16.047142  10.999204  -1.346113 -45.358328  -0.001036 -21.162467  -0.001401   3.128141  -2.653296   5.592704  15.766672  -4.672690  -6.433076  21.426189   0.002254  -0.001287 -32.485610  -3.654445   2.031106  -9.967130  -0.006843  -0.003001 -39.959098   0.346069   3.885290  37.216120   0.000484  -0.007355 -13.180051   6.197066  -0.116397  -3.406090   0.000114   0.000947
 -2.368623   0.829399   4.330910   1.351472   3.688305   2.176602  12.640153   5.962423  -3.395369   6.239518   2.560798  -1.532850  -6.312864  -0.170138   0.311507  -0.259293   7.560599  15.296558  -4.537372  15.038110  40.719275   0.001393  40.241664  -0.004258   5.396090   4.117064  -8.532641   3.960565   1.388139 -16.164254  11.056138  -1.350728 -45.074641  -0.000929 -21.013390  -0.001280   3.159318  -2.570299   5.609762  15.909955  -4.539349  -6.523249  22.042590   0.003260  -0.000628 -31.820166  -3.753220   2.374017 -12.299305  -0.004216  -0.003480 -40.519097   0.327150   3.752551  38.781531   0.002987  -0.006646 -13.371459   6.164904   0.020996  -3.226806   0.000023   0.000698
